<?xml version="1.0" encoding="UTF-8"?>
<svg id="Capa_1" data-name="Capa 1" xmlns="http://www.w3.org/2000/svg" xmlns:xlink="http://www.w3.org/1999/xlink" viewBox="0 0 1920 2536.33">
  <defs>
    <style>
      .cls-1, .cls-2 {
        fill: none;
      }

      .cls-3 {
        clip-path: url(#clippath-1);
      }

      .cls-2 {
        stroke: #0567ee;
        stroke-miterlimit: 10;
        stroke-width: 3.9px;
      }

      .cls-4 {
        fill: #ffe600;
      }

      .cls-5 {
        fill: url(#Degradado_sin_nombre);
      }

      .cls-6 {
        clip-path: url(#clippath);
      }
    </style>
    <clipPath id="clippath">
      <rect class="cls-1" width="1920" height="2536.33"/>
    </clipPath>
    <linearGradient id="Degradado_sin_nombre" data-name="Degradado sin nombre" x1="2128.45" y1="1793.7" x2="231.35" y2="71.9" gradientTransform="translate(0 1436.6896) scale(1 -1)" gradientUnits="userSpaceOnUse">
      <stop offset="0" stop-color="#ffe600"/>
      <stop offset="1" stop-color="#f5f3ed"/>
    </linearGradient>
    <clipPath id="clippath-1">
      <rect class="cls-1" x="-42.54" y="413.7" width="2091.1" height="469.6"/>
    </clipPath>
  </defs>
  <g class="cls-6">
    <path class="cls-4" d="M2106.26,2603.1V662.4h-1037.5L1071.96,0H-143.74v2603.1h2250Z"/>
    <path class="cls-5" d="M3713.56-2290.6h-819.1c-174.5,0-316.5,142-316.5,316.5v819.4c-.4,215.1-175.5,390.1-390.7,390.1h-819.3c-174.5,0-316.5,142-316.5,316.5V160.4h0v210.5c0,215.5-175.3,390.7-390.7,390.7H-158.64c-174.5,0-316.5,142-316.5,316.5v819.1c0,174.5,142,316.5,316.5,316.5h819.1c174.5,0,316.5-142,316.5-316.5v-818.8c0-215.5,175.3-390.7,390.7-390.7h0l227.3-.3h592.1c174.5,0,316.5-142,316.5-316.5V-106.4h0v-341.4c0-214.8,174.2-389.6,388.7-390.7h821.3c174.5,0,316.5-142,316.5-316.5v-819.1c0-174.5-142-316.5-316.5-316.5h.1-.1ZM2370.06,360.2c0,152.7-124,276.7-276.7,276.7h-716c-152.7,0-276.7-124-276.7-276.7V-355.8c0-152.7,124-276.7,276.7-276.7h716c152.7,0,276.7,124,276.7,276.7V360.2Z"/>
    <g class="cls-3">
      <path class="cls-2" d="M1351.76,2200.9l227.3-.3h592.1c174.5,0,316.5-142,316.5-316.5v-477.4h0v-341.4c0-214.8,174.2-389.6,388.7-390.7h821.3c174.5,0,316.5-142,316.5-316.5V-460.9c0-174.5-142-316.5-316.5-316.5h-819.1c-174.5,0-316.5,142-316.5,316.5V358.4c-.4,215.1-175.5,390.1-390.7,390.1h-819.3c-174.5,0-316.5,142-316.5,316.5v608.6h0v210.5c0,215.5-175.3,390.8-390.7,390.8H-174.64c-174.5,0-316.5,142-316.5,316.5v819.1c0,174.5,142,316.5,316.5,316.5h819.1c174.5,0,316.5-142,316.5-316.5v-818.7c0-215.5,175.3-390.8,390.7-390.8h.1v-.1Z"/>
    </g>
  </g>
</svg>